HIERARCHY
ROOT pelvis
{
  OFFSET 0 100 0
  CHANNELS 6 Xposition Yposition Zposition Zrotation Xrotation Yrotation
  JOINT pelvis_right_femur
  {
    OFFSET -10.78128 -3.44521 -0.5502486
    CHANNELS 3 Zrotation Xrotation Yrotation
    JOINT right_femur_tibia
    {
      OFFSET -0.8047443 -44.0398 -0.1307829
      CHANNELS 3 Zrotation Xrotation Yrotation
      JOINT right_tibia_foot
      {
        OFFSET 3.006224 -47.83518 -5
        CHANNELS 3 Zrotation Xrotation Yrotation
        End Site
        {
          OFFSET 0 -5 15
        }
      }
    }
  }
  JOINT pelvis_left_femur
  {
    OFFSET 10.78128 -3.44521 -0.5502486
    CHANNELS 3 Zrotation Xrotation Yrotation
    JOINT left_femur_tibia
    {
      OFFSET 0.8047443 -44.0398 -0.1307829
      CHANNELS 3 Zrotation Xrotation Yrotation
      JOINT left_tibia_foot
      {
        OFFSET -4.370144 -48.10324 -4.275266
        CHANNELS 3 Zrotation Xrotation Yrotation
        End Site
        {
          OFFSET 0 -5 15
        }
      }
    }
  }
  JOINT pelvis_spine1
  {
    OFFSET 0 6.468898 -3.129235
    CHANNELS 3 Zrotation Xrotation Yrotation
    JOINT spine1
    {
      OFFSET 0 23.15396 4.99043
      CHANNELS 3 Zrotation Xrotation Yrotation
      JOINT spine2
      {
        OFFSET 0 20.79997 -5.064912
        CHANNELS 3 Zrotation Xrotation Yrotation
        JOINT neck
        {
          OFFSET 0 14.38658 9.616178
          CHANNELS 3 Zrotation Xrotation Yrotation
          End Site
          {
            OFFSET 0 20 0
          }
        }
      }
      JOINT right_manubrium
      {
        OFFSET -5.722621 16.35077 3.967754
        CHANNELS 3 Zrotation Xrotation Yrotation
        JOINT right_clavicle
        {
          OFFSET -13.16364 1.694482 -4.693211
          CHANNELS 3 Zrotation Xrotation Yrotation
          JOINT right_humerus
          {
            OFFSET -28.5034 -0.3100689 -2.792744
            CHANNELS 3 Zrotation Xrotation Yrotation
            JOINT right_radius
            {
              OFFSET -25.15693 0.02248979 -1.271978
              CHANNELS 3 Zrotation Xrotation Yrotation
              End Site
              {
                OFFSET -15 0 0
              }
            }
          }
        }
      }
      JOINT left_manubrium
      {
        OFFSET 5.722621 16.35077 3.967754
        CHANNELS 3 Zrotation Xrotation Yrotation
        JOINT left_clavicle
        {
          OFFSET 13.16364 1.694482 -4.693211
          CHANNELS 3 Zrotation Xrotation Yrotation
          JOINT left_humerus
          {
            OFFSET 29.39168 -1.063119 -2.237045
            CHANNELS 3 Zrotation Xrotation Yrotation
            JOINT left_radius
            {
              OFFSET 24.59957 -0.9528479 0.9047498
              CHANNELS 3 Zrotation Xrotation Yrotation
              End Site
              {
                OFFSET 15 -0 -0
              }
            }
          }
        }
      }
    }
  }
}
MOTION
Frames: 13
Frame Time: 0.0416666666667
0 103.5113 0 1.758596 -0.2232632 0.00602426 2.316445 -15.62666 10.77234 -0 40.57033 -0 -5.863796 -17.48974 -3.108274 -8.088473 8.822741 -23.989 -0 3.62278 -0 15.61475 -13.21275 30.20467 -4.464727 -4.381455 5.490332 2.433733 10.09828 -7.547562 1.6161 21.91008 6.639504 2.761632 -24.73532 10.20241 6.858926 -20.44812 11.57077 84.98478 39.63576 -17.20317 -0 0 16.96843 -7.305856 9.540243 4.555005 5.607277 -18.95344 -0.8260631 -91.44035 20.25766 20.00762 0 0 -14.24005 16.34671 14.90208 -4.597053
0.3881867 104.0573 1.507972 1.370233 -0.06406434 0.03912494 2.941152 -17.53014 10.14247 -0 39.87753 -0 -6.088115 -15.83613 -2.863193 -7.728034 9.143585 -23.11913 -0 4.266368 -0 15.04437 -13.68872 29.41023 -4.192571 -3.969919 5.217237 2.475112 10.21159 -7.609808 1.538661 21.75151 6.7152 2.932754 -24.7726 10.02399 6.836841 -20.2305 11.62909 85.12569 39.43779 -17.37597 -0 0 16.49533 -7.537013 9.431339 4.599401 5.8464 -19.35097 -1.038601 -91.06147 19.95681 19.5365 0 0 -14.90665 16.59971 14.53617 -4.956266
0.6866495 104.5218 3.268889 0.5239489 0.9512903 0.003530037 5.053783 -22.21624 10.58388 -0 34.85176 -0 -5.100049 -16.78406 -3.090013 -7.048797 10.97956 -22.83091 -0 5.505218 -0 13.35633 -15.76995 28.55593 -3.573328 -3.436608 5.059291 2.886192 9.662843 -7.77371 1.7561 21.4097 6.571784 2.758599 -25.3646 10.28433 6.623168 -19.78707 11.41738 85.27732 38.5615 -18.32221 -0 0 16.26135 -5.709159 8.908176 3.567445 6.268174 -19.37268 -0.8219108 -91.6181 22.0851 19.66258 0 0 -16.70914 14.79903 14.69255 -2.829864
0.9566429 104.8918 5.706996 -0.229159 1.389536 0.0870224 6.180331 -26.28854 9.122092 -0 30.93789 -0 -5.483721 -12.80528 -2.45935 -6.368173 12.01532 -20.99858 -0 6.868989 -0 11.30673 -17.30774 26.34651 -3.008062 -2.612958 4.452388 3.014825 9.761943 -7.82512 1.69355 21.1678 6.723603 3.019207 -25.56386 10.06887 6.224625 -19.27769 11.45682 85.94605 37.40021 -19.07345 -0 0 14.84232 -6.513891 8.777397 3.983878 6.635076 -20.18045 -1.364606 -91.07157 22.34389 18.97029 0 0 -18.55329 14.09186 14.34485 -2.02323
1.233773 105.0895 8.890751 -0.6994517 1.274759 0.3253948 6.183138 -29.09248 6.483903 -0 27.32186 -0 -6.466358 -7.365357 -1.498896 -5.869815 12.5679 -18.59862 -0 7.693585 -0 9.145042 -18.47248 23.47622 -2.572866 -1.830807 3.716724 2.958475 10.11566 -7.80131 1.519119 21.15358 6.90521 3.29689 -25.4366 9.620609 5.499272 -18.86942 11.58372 86.93421 35.45615 -19.71607 -0 0 12.97795 -8.792831 8.810205 5.285959 6.846757 -21.3029 -2.330321 -90.00955 21.95153 17.83085 0 0 -20.36535 13.57102 14.07539 -1.439232
1.545027 104.9211 12.95923 -0.7200002 0.2413893 0.7567378 4.661904 -30.42731 1.794935 -0 22.69621 -0 -8.009022 -0.7368411 -0.1184058 -5.594672 12.78023 -15.2028 -0 8.035578 -0 6.656064 -19.35229 19.49974 -2.236317 -1.062747 2.859907 2.577526 10.67805 -7.618139 1.248411 21.54805 6.997051 3.493563 -24.53074 8.786239 4.054943 -18.45445 11.71937 88.45294 31.72003 -20.27014 -0 0 10.43928 -13.03704 8.813787 7.597082 7.048118 -22.96064 -3.950318 -88.02231 20.61443 15.43817 0 0 -22.63598 13.40817 13.96535 -1.449609
1.863903 104.2826 17.74586 -0.1783314 -1.219815 1.326013 2.64754 -29.89418 -2.74552 -0 16.45539 -0 -8.976025 3.063925 0.6877462 -5.696011 13.26904 -12.33392 -0 8.276232 -0 4.349305 -20.12663 15.96824 -2.093813 -0.7637581 2.395819 2.046795 10.87024 -7.308914 1.178398 22.28626 6.72298 3.307317 -23.10053 7.99298 2.074256 -18.05622 11.58202 90.18096 26.8286 -20.87904 -0 0 8.169597 -16.87446 8.439927 9.515276 7.25076 -24.42268 -5.436039 -86.07883 19.72703 12.52144 0 0 -25.15127 12.77742 14.34345 -1.045286
2.132844 103.2047 23.18404 0.7344471 -2.818702 1.969474 1.022176 -28.03074 -6.240954 -0 9.272729 -0 -9.423881 4.153595 0.55297 -6.068719 14.48244 -10.07629 -0 9.356382 -0 2.455809 -20.71577 13.31852 -2.048122 -1.095003 2.331238 1.468707 10.706 -7.008695 1.351211 23.20728 6.045651 2.772059 -21.41191 7.293634 -0.3226586 -17.64246 11.14862 92.27186 21.30604 -21.78482 -0 0 6.025946 -19.64356 7.71325 10.59094 7.451797 -25.75257 -6.532399 -84.2043 19.28509 9.177473 0 0 -28.16312 11.76456 15.06837 -0.243011
2.304999 102.0709 29.20723 1.326986 -3.871885 2.552983 0.8125181 -26.28686 -7.40228 -0 4.547481 -0 -9.830123 3.731458 -0.4176881 -6.297922 16.25808 -8.756127 -0 12.25423 -0 1.477159 -20.65189 12.23866 -1.82874 -1.944331 2.475056 1.093429 10.48262 -6.955227 1.676415 23.83523 5.271861 2.150627 -20.34643 6.91714 -2.325527 -17.34186 10.63139 94.30752 17.23813 -22.92288 -0 0 4.239439 -20.6667 7.147482 10.61798 7.444373 -26.74982 -6.90802 -82.88721 19.16121 6.700272 0 0 -30.88878 10.82365 15.76598 0.7317973
2.336119 101.3617 35.73172 1.129639 -4.365515 2.898844 2.125177 -25.23751 -6.356015 -0 4.049037 -0 -10.63483 3.299735 -1.717073 -6.010537 17.93787 -8.177703 -0 18.09681 -0 1.283321 -19.30563 12.47449 -1.155402 -2.94576 2.567159 0.9489188 10.58514 -7.169588 2.016697 23.99312 4.732692 1.660321 -20.14287 6.956285 -3.54042 -17.19887 10.25475 96.04753 15.51682 -24.09203 -0 0 2.862339 -20.56033 7.311619 10.06204 7.034449 -27.32558 -6.793188 -82.32632 18.97008 5.859413 0 0 -32.5016 10.37496 16.25325 1.474272
2.227115 101.4129 42.54699 0.2665332 -4.61828 2.895826 4.336045 -24.35213 -3.901899 -0 6.960483 -0 -11.58738 3.055316 -2.830727 -5.248035 18.40768 -8.113578 -0 26.83685 -0 1.562575 -16.52586 13.44551 -0.1452441 -3.651077 2.606242 0.9726051 11.18895 -7.496813 2.254583 23.76316 4.582572 1.395874 -20.48919 7.357623 -3.869979 -17.24237 10.17928 97.24125 16.0992 -24.96495 -0 0 2.213723 -20.01036 8.322063 9.416977 6.213979 -27.35846 -6.591115 -82.58208 18.54982 6.850594 0 0 -32.40883 10.49112 16.32959 1.720349
2.023614 102.2903 49.4083 -0.6955404 -4.985792 2.529727 6.516489 -22.58781 -1.108742 -0 10.6488 -0 -12.27013 2.43009 -3.657595 -4.388237 16.9808 -8.141777 -0 37.38157 -0 2.054244 -12.86386 14.56025 0.8210744 -3.93233 2.822359 1.056778 12.19226 -7.766899 2.37848 23.36462 4.618033 1.236998 -20.90023 7.860343 -3.718824 -17.53285 10.37872 97.97943 17.817 -25.4166 -0 0 2.385402 -19.37271 9.698122 8.935914 5.151538 -26.98603 -6.550867 -83.36125 17.95043 9.106636 0 0 -31.07523 10.80109 15.86334 1.70676
1.785956 103.8396 56.11027 -1.299645 -5.592428 1.871899 7.95183 -19.43798 1.161991 -0 13.22608 -0 -12.49097 1.20535 -4.240561 -3.708389 13.56318 -7.945886 -0 47.59908 -0 2.670459 -9.214591 15.49354 1.422452 -3.867473 3.375863 1.106448 13.37015 -7.868403 2.416269 22.9454 4.584886 1.051545 -21.15252 8.191167 -3.495238 -18.1797 10.75223 98.3296 19.51903 -25.34192 -0 0 3.331898 -18.83627 10.9484 8.769317 4.078972 -26.42986 -6.691984 -84.35199 17.29642 12.02692 0 0 -29.2643 10.9265 14.96853 1.825488
